<mxfile host="app.diagrams.net" modified="2023-06-13T13:57:42.956Z" agent="Mozilla/5.0 (Windows NT 10.0; Win64; x64) AppleWebKit/537.36 (KHTML, like Gecko) Chrome/114.0.0.0 Safari/537.36" etag="bgXK9G5kRJXmwisuxixM" version="21.3.8" type="github" pages="2">
  <diagram name="overview" id="5O1f_PVuT7Y3OC5Ay735">
    <mxGraphModel dx="1434" dy="756" grid="1" gridSize="10" guides="1" tooltips="1" connect="1" arrows="1" fold="1" page="1" pageScale="1" pageWidth="827" pageHeight="1169" math="0" shadow="0">
      <root>
        <mxCell id="0" />
        <mxCell id="1" parent="0" />
        <mxCell id="vqs30NflBlWqxU9C8px6-15" value="" style="edgeStyle=orthogonalEdgeStyle;rounded=0;orthogonalLoop=1;jettySize=auto;html=1;" edge="1" parent="1" source="vqs30NflBlWqxU9C8px6-13" target="vqs30NflBlWqxU9C8px6-14">
          <mxGeometry relative="1" as="geometry" />
        </mxCell>
        <mxCell id="vqs30NflBlWqxU9C8px6-13" value="" style="ellipse;whiteSpace=wrap;html=1;" vertex="1" parent="1">
          <mxGeometry x="40" y="55" width="710" height="330" as="geometry" />
        </mxCell>
        <mxCell id="vqs30NflBlWqxU9C8px6-1" value="&lt;font style=&quot;font-size: 14px;&quot;&gt;API&lt;/font&gt;" style="ellipse;whiteSpace=wrap;html=1;fillColor=#1ba1e2;fontColor=#ffffff;strokeColor=#006EAF;" vertex="1" parent="1">
          <mxGeometry x="346.5" y="180" width="120" height="80" as="geometry" />
        </mxCell>
        <mxCell id="vqs30NflBlWqxU9C8px6-8" value="Spotify API" style="rhombus;whiteSpace=wrap;html=1;fillColor=#a20025;strokeColor=#6F0000;fontColor=#ffffff;" vertex="1" parent="1">
          <mxGeometry x="542.5" y="180" width="80" height="80" as="geometry" />
        </mxCell>
        <mxCell id="vqs30NflBlWqxU9C8px6-12" value="" style="endArrow=classic;startArrow=classic;html=1;rounded=0;exitX=1;exitY=0.5;exitDx=0;exitDy=0;entryX=0;entryY=0.5;entryDx=0;entryDy=0;" edge="1" parent="1" source="vqs30NflBlWqxU9C8px6-1" target="vqs30NflBlWqxU9C8px6-8">
          <mxGeometry width="50" height="50" relative="1" as="geometry">
            <mxPoint x="592.5" y="130" as="sourcePoint" />
            <mxPoint x="642.5" y="80" as="targetPoint" />
          </mxGeometry>
        </mxCell>
        <mxCell id="vqs30NflBlWqxU9C8px6-14" value="Version Control (Github actions)" style="whiteSpace=wrap;html=1;" vertex="1" parent="1">
          <mxGeometry x="152.5" y="530" width="485" height="150" as="geometry" />
        </mxCell>
        <mxCell id="vqs30NflBlWqxU9C8px6-16" value="Pug frontend&lt;br&gt;" style="whiteSpace=wrap;html=1;fillColor=#60a917;strokeColor=#2D7600;fontColor=#ffffff;" vertex="1" parent="1">
          <mxGeometry x="152.5" y="190" width="120" height="60" as="geometry" />
        </mxCell>
        <mxCell id="vqs30NflBlWqxU9C8px6-17" value="" style="endArrow=classic;startArrow=classic;html=1;rounded=0;entryX=0;entryY=0.5;entryDx=0;entryDy=0;exitX=1;exitY=0.5;exitDx=0;exitDy=0;" edge="1" source="vqs30NflBlWqxU9C8px6-16" parent="1">
          <mxGeometry width="50" height="50" relative="1" as="geometry">
            <mxPoint x="242.5" y="230" as="sourcePoint" />
            <mxPoint x="346.5" y="220" as="targetPoint" />
          </mxGeometry>
        </mxCell>
      </root>
    </mxGraphModel>
  </diagram>
  <diagram id="W-mktd9H3qZBzVpHwBtW" name="api">
    <mxGraphModel dx="1434" dy="756" grid="1" gridSize="10" guides="1" tooltips="1" connect="1" arrows="1" fold="1" page="1" pageScale="1" pageWidth="827" pageHeight="1169" math="0" shadow="0">
      <root>
        <mxCell id="0" />
        <mxCell id="1" parent="0" />
        <mxCell id="xDAPh4A_2jWwx_dgPW8R-5" value="" style="edgeStyle=orthogonalEdgeStyle;rounded=0;orthogonalLoop=1;jettySize=auto;html=1;" edge="1" parent="1" source="xDAPh4A_2jWwx_dgPW8R-3" target="xDAPh4A_2jWwx_dgPW8R-4">
          <mxGeometry relative="1" as="geometry" />
        </mxCell>
        <mxCell id="xDAPh4A_2jWwx_dgPW8R-3" value="start" style="ellipse;whiteSpace=wrap;html=1;" vertex="1" parent="1">
          <mxGeometry x="354" y="20" width="120" height="80" as="geometry" />
        </mxCell>
        <mxCell id="xDAPh4A_2jWwx_dgPW8R-7" value="" style="edgeStyle=orthogonalEdgeStyle;rounded=0;orthogonalLoop=1;jettySize=auto;html=1;" edge="1" parent="1" source="xDAPh4A_2jWwx_dgPW8R-4" target="xDAPh4A_2jWwx_dgPW8R-6">
          <mxGeometry relative="1" as="geometry" />
        </mxCell>
        <mxCell id="xDAPh4A_2jWwx_dgPW8R-4" value="login to spotify&lt;br&gt;" style="whiteSpace=wrap;html=1;" vertex="1" parent="1">
          <mxGeometry x="354" y="190" width="120" height="60" as="geometry" />
        </mxCell>
        <mxCell id="xDAPh4A_2jWwx_dgPW8R-9" value="" style="edgeStyle=orthogonalEdgeStyle;rounded=0;orthogonalLoop=1;jettySize=auto;html=1;" edge="1" parent="1" source="xDAPh4A_2jWwx_dgPW8R-6" target="xDAPh4A_2jWwx_dgPW8R-8">
          <mxGeometry relative="1" as="geometry" />
        </mxCell>
        <mxCell id="xDAPh4A_2jWwx_dgPW8R-6" value="get auth and refresh tokens" style="whiteSpace=wrap;html=1;" vertex="1" parent="1">
          <mxGeometry x="354" y="330" width="120" height="60" as="geometry" />
        </mxCell>
        <mxCell id="xDAPh4A_2jWwx_dgPW8R-11" value="" style="edgeStyle=orthogonalEdgeStyle;rounded=0;orthogonalLoop=1;jettySize=auto;html=1;" edge="1" parent="1" source="xDAPh4A_2jWwx_dgPW8R-8" target="xDAPh4A_2jWwx_dgPW8R-10">
          <mxGeometry relative="1" as="geometry" />
        </mxCell>
        <mxCell id="xDAPh4A_2jWwx_dgPW8R-16" value="" style="edgeStyle=orthogonalEdgeStyle;rounded=0;orthogonalLoop=1;jettySize=auto;html=1;" edge="1" parent="1" source="xDAPh4A_2jWwx_dgPW8R-8" target="xDAPh4A_2jWwx_dgPW8R-15">
          <mxGeometry relative="1" as="geometry" />
        </mxCell>
        <mxCell id="xDAPh4A_2jWwx_dgPW8R-8" value="valid token?" style="rhombus;whiteSpace=wrap;html=1;" vertex="1" parent="1">
          <mxGeometry x="374" y="460" width="80" height="80" as="geometry" />
        </mxCell>
        <mxCell id="xDAPh4A_2jWwx_dgPW8R-19" value="" style="edgeStyle=orthogonalEdgeStyle;rounded=0;orthogonalLoop=1;jettySize=auto;html=1;" edge="1" parent="1" source="xDAPh4A_2jWwx_dgPW8R-10" target="xDAPh4A_2jWwx_dgPW8R-18">
          <mxGeometry relative="1" as="geometry" />
        </mxCell>
        <mxCell id="xDAPh4A_2jWwx_dgPW8R-10" value="Get necessary data" style="whiteSpace=wrap;html=1;" vertex="1" parent="1">
          <mxGeometry x="514" y="470" width="120" height="60" as="geometry" />
        </mxCell>
        <mxCell id="xDAPh4A_2jWwx_dgPW8R-12" value="Yes" style="text;html=1;align=center;verticalAlign=middle;resizable=0;points=[];autosize=1;strokeColor=none;fillColor=none;" vertex="1" parent="1">
          <mxGeometry x="450" y="470" width="40" height="30" as="geometry" />
        </mxCell>
        <mxCell id="xDAPh4A_2jWwx_dgPW8R-22" style="edgeStyle=orthogonalEdgeStyle;rounded=0;orthogonalLoop=1;jettySize=auto;html=1;exitX=0;exitY=0.5;exitDx=0;exitDy=0;entryX=0;entryY=0.5;entryDx=0;entryDy=0;" edge="1" parent="1" source="xDAPh4A_2jWwx_dgPW8R-15" target="xDAPh4A_2jWwx_dgPW8R-8">
          <mxGeometry relative="1" as="geometry" />
        </mxCell>
        <mxCell id="xDAPh4A_2jWwx_dgPW8R-15" value="Try again" style="whiteSpace=wrap;html=1;" vertex="1" parent="1">
          <mxGeometry x="354" y="630" width="120" height="60" as="geometry" />
        </mxCell>
        <mxCell id="xDAPh4A_2jWwx_dgPW8R-17" value="No&lt;br&gt;" style="text;html=1;align=center;verticalAlign=middle;resizable=0;points=[];autosize=1;strokeColor=none;fillColor=none;" vertex="1" parent="1">
          <mxGeometry x="414" y="538" width="40" height="30" as="geometry" />
        </mxCell>
        <mxCell id="xDAPh4A_2jWwx_dgPW8R-21" value="" style="edgeStyle=orthogonalEdgeStyle;rounded=0;orthogonalLoop=1;jettySize=auto;html=1;" edge="1" parent="1" source="xDAPh4A_2jWwx_dgPW8R-18" target="xDAPh4A_2jWwx_dgPW8R-20">
          <mxGeometry relative="1" as="geometry" />
        </mxCell>
        <mxCell id="xDAPh4A_2jWwx_dgPW8R-18" value="build html" style="whiteSpace=wrap;html=1;" vertex="1" parent="1">
          <mxGeometry x="680" y="470" width="120" height="60" as="geometry" />
        </mxCell>
        <mxCell id="xDAPh4A_2jWwx_dgPW8R-20" value="serve html/css/js" style="whiteSpace=wrap;html=1;" vertex="1" parent="1">
          <mxGeometry x="680" y="610" width="120" height="60" as="geometry" />
        </mxCell>
      </root>
    </mxGraphModel>
  </diagram>
</mxfile>
